<svg id="Layer_1" enable-background="new 0 0 512 512" height="512" viewBox="0 0 512 512" width="512" xmlns="http://www.w3.org/2000/svg"><g><path d="m462 156c-27.57 0-50 22.43-50 50v10h-101.965c18.752-27.358 35.965-60.502 35.965-90 0-49.626-40.374-90-90-90s-90 40.374-90 90c0 29.498 17.213 62.642 35.965 90h-101.965v-10c0-27.57-22.43-50-50-50s-50 22.43-50 50v220c0 27.57 22.43 50 50 50h412c27.57 0 50-22.43 50-50v-220c0-27.57-22.43-50-50-50zm-30 50c0-16.542 13.458-30 30-30s30 13.458 30 30v180.027c-8.363-6.292-18.753-10.027-30-10.027s-21.637 3.735-30 10.027zm-20 140h-96l96-96zm-156-290c38.598 0 70 31.402 70 70 0 45.057-50.948 104.722-70 125.457-19.053-20.736-70-80.4-70-125.457 0-38.598 31.402-70 70-70zm-7.071 217.071c1.953 1.953 4.512 2.929 7.071 2.929s5.119-.976 7.071-2.929c1.401-1.401 15.848-15.978 32.3-37.071h70.629l-110 110h-60v-110h20.629c16.452 21.093 30.899 35.67 32.3 37.071zm-92.929-37.071v110h-56v-110zm-106-60c16.542 0 30 13.458 30 30v180.027c-8.363-6.292-18.753-10.027-30-10.027s-21.637 3.735-30 10.027v-180.027c0-16.542 13.458-30 30-30zm-30 250c0-16.542 13.458-30 30-30s30 13.458 30 30c0 5.523 4.477 10 10 10s10-4.477 10-10v-40h126l-70 70h-106c-16.542 0-30-13.458-30-30zm442 30h-246l70-70h126v40c0 5.523 4.477 10 10 10s10-4.477 10-10c0-16.542 13.458-30 30-30s30 13.458 30 30-13.458 30-30 30z"/><circle cx="256" cy="126" r="30"/></g></svg>